<?xml version="1.0" standalone="no"?>
<!DOCTYPE svg PUBLIC "-//W3C//DTD SVG 20010904//EN"
 "http://www.w3.org/TR/2001/REC-SVG-20010904/DTD/svg10.dtd">
<svg version="1.0" xmlns="http://www.w3.org/2000/svg"
 width="512.000000pt" height="512.000000pt" viewBox="0 0 512.000000 512.000000"
 preserveAspectRatio="xMidYMid meet">

<g transform="translate(0.000000,512.000000) scale(0.100000,-0.100000)"
fill="#79282c" stroke="none">
<path d="M2385 5109 c-1215 -125 -2165 -1062 -2306 -2274 -14 -129 -14 -421 0
-550 68 -584 325 -1118 737 -1530 586 -587 1418 -856 2224 -719 981 167 1747
932 1959 1959 35 174 51 341 53 585 l3 235 -1087 3 -1088 2 0 -320 0 -320 756
0 756 0 -7 -33 c-122 -602 -467 -1071 -974 -1323 -699 -347 -1567 -190 -2142
388 -581 584 -728 1459 -367 2182 104 207 210 355 367 514 444 445 1067 648
1671 543 347 -60 671 -228 935 -483 l81 -77 229 230 230 230 -70 67 c-373 358
-869 602 -1375 677 -127 19 -461 27 -585 14z"/>
</g>
</svg>
