<?xml version="1.0" standalone="no"?>
<!DOCTYPE svg PUBLIC "-//W3C//DTD SVG 20010904//EN"
 "http://www.w3.org/TR/2001/REC-SVG-20010904/DTD/svg10.dtd">
<svg version="1.0" xmlns="http://www.w3.org/2000/svg"
 width="512.000000pt" height="512.000000pt" viewBox="0 0 512.000000 512.000000"
 preserveAspectRatio="xMidYMid meet">

<g transform="translate(0.000000,512.000000) scale(0.100000,-0.100000)"
fill="#ffff" stroke="none">
<path d="M297 4680 c-114 -36 -200 -113 -256 -230 l-36 -75 0 -1815 0 -1815
36 -75 c57 -118 143 -195 262 -232 55 -17 122 -18 1152 -18 l1094 0 -30 88
c-58 169 -102 371 -123 562 l-12 105 -44 7 c-25 4 -97 14 -160 23 -194 28
-428 95 -612 176 -137 60 -201 95 -232 125 -137 136 -43 363 150 364 42 0 71
-10 160 -53 217 -106 446 -175 675 -201 l55 -7 17 173 c15 148 30 241 72 461
l7 37 -277 0 -278 0 7 190 c11 301 58 567 171 957 94 327 288 874 424 1192 17
40 31 75 31 77 0 2 -494 4 -1097 3 -1042 0 -1101 -1 -1156 -19z m1258 -969
c51 -23 91 -70 106 -123 6 -25 9 -103 7 -197 -4 -175 -14 -212 -74 -258 -61
-46 -168 -44 -225 4 -59 50 -69 88 -69 277 0 152 2 174 21 213 43 89 144 125
234 84z"/>
<path d="M2933 4502 c-221 -531 -390 -1019 -483 -1392 -37 -148 -80 -355 -80
-386 0 -12 50 -14 345 -14 269 0 345 -3 345 -12 0 -7 -27 -84 -60 -170 -64
-172 -118 -372 -149 -556 -25 -143 -46 -341 -37 -349 8 -9 146 15 271 47 142
37 270 86 420 162 103 52 128 61 175 61 123 0 210 -88 210 -214 0 -107 -52
-161 -243 -253 -248 -120 -529 -204 -774 -231 l-61 -7 4 -31 c34 -265 66 -409
128 -581 20 -54 36 -111 36 -127 l0 -29 889 0 c865 0 891 1 955 20 141 44 253
169 285 320 9 41 11 497 9 1835 l-3 1780 -29 63 c-56 122 -148 206 -263 242
-63 19 -91 20 -937 20 l-871 0 -82 -198z m842 -806 c23 -12 49 -38 62 -61 22
-38 23 -47 21 -236 l-3 -196 -28 -36 c-38 -51 -81 -71 -148 -71 -70 -1 -129
34 -159 95 -20 38 -21 54 -18 228 3 180 4 189 28 223 56 83 152 104 245 54z"/>
</g>
</svg>
