<?xml version="1.0" standalone="no"?>
<!DOCTYPE svg PUBLIC "-//W3C//DTD SVG 20010904//EN"
 "http://www.w3.org/TR/2001/REC-SVG-20010904/DTD/svg10.dtd">
<svg version="1.0" xmlns="http://www.w3.org/2000/svg"
 width="512.000000pt" height="512.000000pt" viewBox="0 0 512.000000 512.000000"
 preserveAspectRatio="xMidYMid meet">

<g transform="translate(0.000000,512.000000) scale(0.100000,-0.100000)"
fill="#ffff" stroke="none">
<path d="M2425 5114 c-283 -40 -486 -112 -682 -240 -342 -222 -571 -548 -670
-954 -25 -101 -26 -118 -30 -486 l-5 -381 -62 -6 c-129 -12 -244 -79 -312
-181 -73 -111 -68 -22 -72 -1295 -1 -682 1 -1171 7 -1212 17 -126 93 -243 196
-304 100 -58 14 -56 1791 -53 l1629 3 67 32 c134 63 217 175 238 318 13 95 13
2246 0 2340 -26 182 -159 316 -344 348 l-66 11 0 306 c0 462 -26 615 -151 880
-79 166 -167 289 -303 425 -227 226 -479 362 -789 426 -98 20 -365 34 -442 23z
m360 -694 c304 -77 542 -315 626 -625 20 -73 23 -110 27 -412 l4 -333 -867 0
-866 0 4 348 c4 391 5 399 82 558 124 258 368 439 650 484 86 13 247 4 340
-20z"/>
</g>
</svg>
